<?xml version="1.0" encoding="UTF-8"?>
<svg width="154px" height="156px" viewBox="0 0 154 156" version="1.1" xmlns="http://www.w3.org/2000/svg" xmlns:xlink="http://www.w3.org/1999/xlink">
    <title>wink 2</title>
    <defs>
        <rect id="path-1" x="0" y="0" width="154" height="156" rx="35"></rect>
    </defs>
    <g id="Page-1" stroke="none" stroke-width="1" fill="none" fill-rule="evenodd">
        <g id="wink">
            <mask id="mask-2" fill="white">
                <use xlink:href="#path-1"></use>
            </mask>
            <g id="path-1"></g>
            <g mask="url(#mask-2)" id="Group">
                <g transform="translate(-0.390000, 0.699322)">
                    <g fill="#000000" fill-rule="nonzero">
                        <g id="p1-link" transform="translate(0.000000, 0.000000)" stroke="#55B097">
                            <path d="M30.39,0.0906775297 C62.05,0.0706775297 93.72,0.13067753 125.39,0.0406775297 C138.52,-0.66932247 151.49,7.98067753 154.86,20.8506775 C156.42,27.8206775 156.71,35.1806775 156.59,42.3006775 C156.53,65.6306775 156.62,88.9706775 156.57,112.300678 C156.87,123.320678 156.63,136.950678 148.61,145.530678 C143.39,151.820678 135.49,154.980678 127.39,154.840678 C95.73,154.970678 64.06,154.930678 32.39,154.840678 C27.31,154.780678 22.6,154.960678 17.87,152.770678 C12.43,150.780678 8.99,146.640678 5.51,142.210678 C1.84,136.430678 0.25,129.080678 0,122.300678 C0,92.3506775 0.01,62.2506775 0.04,32.2906775 C0.18,24.7006775 1.59,17.4006775 6.45,11.3506775 C12.13,4.03067753 21.13,-0.17932247 30.39,0.0906775297 Z M74.33,90.3406775 C73.16,90.6006775 71.36,90.3706775 70.51,91.3506775 C67.99,93.6806775 66.18,96.2806775 63.17,98.1306775 C55.61,102.850678 45.3,101.810678 38.46,96.2306775 C32.48,91.5006775 29.47,83.8306775 30.07,76.2806775 C30.67,67.3306775 36.73,59.1606775 45.15,56.0406775 C49.33,54.4706775 54.08,54.7406775 58.49,54.6306775 C59.08,54.1206775 59.67,53.6006775 60.26,53.0906775 C60.22,51.8706775 60.17,50.6406775 60.12,49.4206775 C53.47,46.9106775 46.53,48.2806775 40.29,51.2206775 C35.08,53.7106775 30.61,57.5806775 27.66,62.5806775 C23.58,69.2706775 22.86,77.5506775 24.56,85.0906775 C27.37,97.8006775 40.26,108.020678 53.4,106.870678 C61.18,106.340678 68.39,102.130678 72.93,95.8306775 C74.18,94.1406775 74.06,92.3306775 74.33,90.3406775 Z M90.25,62.4806775 C90.48,63.6306775 90.78,64.7506775 91.14,65.8606775 C93.65,66.0406775 96.33,64.4606775 98.68,63.6406775 C105.1,60.9906775 112.33,60.5206775 118.96,62.7206775 C123.8,64.2606775 127.01,67.9006775 132.28,68.4006775 C132.37,66.3406775 133.55,64.5306775 131.69,62.9806775 C123.44,54.9106775 110.44,52.2706775 99.71,56.5906775 C96.13,57.9706775 93.27,60.1806775 90.25,62.4806775 Z M48.35,65.0506775 C49.66,67.4606775 51.12,69.4306775 50.77,72.3506775 C50.69,75.3706775 48.34,77.8006775 45.36,78.0906775 C42.37,78.4806775 40.4,76.7706775 37.9,75.4906775 C37.35,81.5006775 39.01,87.0506775 44.01,90.6906775 C49.77,95.0506775 58.03,94.1006775 62.54,88.4406775 C67.86,82.4406775 66.94,72.9706775 60.72,67.9706775 C57.08,64.7806775 52.94,64.7706775 48.35,65.0506775 Z M103.3,82.1906775 C107.49,81.0806775 112.38,81.3206775 116.19,83.5206775 C118.83,84.7606775 120.88,86.9406775 124,85.9106775 C125.49,84.8006775 126.34,83.1506775 125.59,81.3006775 C124.25,78.0006775 120.42,75.7206775 117.31,74.3106775 C108.41,70.3606775 97.13,74.0306775 92.21,82.3606775 C91.05,84.3806775 91.99,86.6406775 94.42,86.6210678 C97.39,85.5006775 100.15,83.1406775 103.3,82.1906775 Z" id="p1"></path>
                        </g>
                        <g id="p2-link" transform="translate(23.701395, 48.110585)" stroke="#FCFEFF">
                            <path d="M36.4186053,1.31009263 C36.4686053,2.53009263 36.5186053,3.76009263 36.5586053,4.98009263 C35.9686053,5.49009263 35.3786053,6.01009263 34.7886053,6.52009263 C30.3786053,6.63009263 25.6286053,6.36009263 21.4486053,7.93009263 C13.0286053,11.0500926 6.96860527,19.2200926 6.36860527,28.1700926 C5.76860527,35.7200926 8.77860527,43.3900926 14.7586053,48.1200926 C21.5986053,53.7000926 31.9086053,54.7400926 39.4686053,50.0200926 C42.4786053,48.1700926 44.2886053,45.5700926 46.8086053,43.2400926 C47.6586053,42.2600926 49.4586053,42.4900926 50.6286053,42.2300926 C50.3586053,44.2200926 50.4786053,46.0300926 49.2286053,47.7200926 C44.6886053,54.0200926 37.4786053,58.2300926 29.6986053,58.7600926 C16.5586053,59.9100926 3.66860527,49.6900926 0.858605272,36.9800926 C-0.841394728,29.4400926 -0.121394728,21.1600926 3.95860527,14.4700926 C6.90860527,9.47009263 11.3786053,5.60009263 16.5886053,3.11009263 C22.8286053,0.170092636 29.7686053,-1.19990737 36.4186053,1.31009263 Z" id="p2"></path>
                        </g>
                        <g id="p3-link" transform="translate(90.250000, 54.531397)" stroke="#FCFEFF">
                            <path d="M41.44,8.44928055 C43.3,9.99928055 42.12,11.8092805 42.03,13.8692805 C36.76,13.3692805 33.55,9.72928055 28.71,8.18928055 C22.08,5.98928055 14.85,6.45928055 8.43,9.10928055 C6.08,9.92928055 3.4,11.5092805 0.89,11.3292805 C0.53,10.2192805 0.23,9.09928055 -1.52020044e-23,7.94928055 C3.02,5.64928055 5.88,3.43928055 9.46,2.05928055 C20.19,-2.26071945 33.19,0.379280538 41.44,8.44928055 Z" id="p3"></path>
                        </g>
                        <g id="p4-link" transform="translate(37.799421, 64.938633)" stroke="#FCFEFF">
                            <path d="M10.5505789,0.112045466 C15.1405789,-0.167954534 19.2805789,-0.157954534 22.9205789,3.03204547 C29.1405789,8.03204547 30.0605789,17.5020455 24.7405789,23.5020455 C20.2305789,29.1620455 11.9705789,30.1120455 6.2105789,25.7520455 C1.2105789,22.1120455 -0.449421099,16.5620455 0.100578901,10.5520455 C2.6005789,11.8320455 4.5705789,13.5420455 7.5605789,13.1520455 C10.5405789,12.8620455 12.8905789,10.4320455 12.9705789,7.41204547 C13.3205789,4.49204547 11.8605789,2.52204547 10.5505789,0.112045466 Z" id="p4"></path>
                        </g>
                        <g id="p5-link" transform="translate(91.715735, 72.719124)" stroke="#FCFEFF">
                            <path d="M25.5942648,1.59155366 C28.7042648,3.00155366 32.5342648,5.28155366 33.8742648,8.58155366 C34.6242648,10.4315537 33.7742648,12.0815537 32.2842648,13.1915537 C29.1642648,14.2215537 27.1142648,12.0415537 24.4742648,10.8015537 C20.6642648,8.60155366 15.7742648,8.36155366 11.5842648,9.47155366 C8.43426479,10.4215537 5.67426479,12.7815537 2.70426479,13.9019439 C0.274264788,13.9215537 -0.665735212,11.6615537 0.494264788,9.64155366 C5.41426479,1.31155366 16.6942648,-2.35844634 25.5942648,1.59155366 Z" id="p5"></path>
                        </g>
                    </g>
                    <g fill-rule="nonzero">
                        <g id="p1-link" transform="translate(0.000000, 0.000000)" fill="#55B097">
                            <path d="M30.39,0.0906775297 C62.05,0.0706775297 93.72,0.13067753 125.39,0.0406775297 C138.52,-0.66932247 151.49,7.98067753 154.86,20.8506775 C156.42,27.8206775 156.71,35.1806775 156.59,42.3006775 C156.53,65.6306775 156.62,88.9706775 156.57,112.300678 C156.87,123.320678 156.63,136.950678 148.61,145.530678 C143.39,151.820678 135.49,154.980678 127.39,154.840678 C95.73,154.970678 64.06,154.930678 32.39,154.840678 C27.31,154.780678 22.6,154.960678 17.87,152.770678 C12.43,150.780678 8.99,146.640678 5.51,142.210678 C1.84,136.430678 0.25,129.080678 0,122.300678 C0,92.3506775 0.01,62.2506775 0.04,32.2906775 C0.18,24.7006775 1.59,17.4006775 6.45,11.3506775 C12.13,4.03067753 21.13,-0.17932247 30.39,0.0906775297 Z M74.33,90.3406775 C73.16,90.6006775 71.36,90.3706775 70.51,91.3506775 C67.99,93.6806775 66.18,96.2806775 63.17,98.1306775 C55.61,102.850678 45.3,101.810678 38.46,96.2306775 C32.48,91.5006775 29.47,83.8306775 30.07,76.2806775 C30.67,67.3306775 36.73,59.1606775 45.15,56.0406775 C49.33,54.4706775 54.08,54.7406775 58.49,54.6306775 C59.08,54.1206775 59.67,53.6006775 60.26,53.0906775 C60.22,51.8706775 60.17,50.6406775 60.12,49.4206775 C53.47,46.9106775 46.53,48.2806775 40.29,51.2206775 C35.08,53.7106775 30.61,57.5806775 27.66,62.5806775 C23.58,69.2706775 22.86,77.5506775 24.56,85.0906775 C27.37,97.8006775 40.26,108.020678 53.4,106.870678 C61.18,106.340678 68.39,102.130678 72.93,95.8306775 C74.18,94.1406775 74.06,92.3306775 74.33,90.3406775 Z M90.25,62.4806775 C90.48,63.6306775 90.78,64.7506775 91.14,65.8606775 C93.65,66.0406775 96.33,64.4606775 98.68,63.6406775 C105.1,60.9906775 112.33,60.5206775 118.96,62.7206775 C123.8,64.2606775 127.01,67.9006775 132.28,68.4006775 C132.37,66.3406775 133.55,64.5306775 131.69,62.9806775 C123.44,54.9106775 110.44,52.2706775 99.71,56.5906775 C96.13,57.9706775 93.27,60.1806775 90.25,62.4806775 Z M48.35,65.0506775 C49.66,67.4606775 51.12,69.4306775 50.77,72.3506775 C50.69,75.3706775 48.34,77.8006775 45.36,78.0906775 C42.37,78.4806775 40.4,76.7706775 37.9,75.4906775 C37.35,81.5006775 39.01,87.0506775 44.01,90.6906775 C49.77,95.0506775 58.03,94.1006775 62.54,88.4406775 C67.86,82.4406775 66.94,72.9706775 60.72,67.9706775 C57.08,64.7806775 52.94,64.7706775 48.35,65.0506775 Z M103.3,82.1906775 C107.49,81.0806775 112.38,81.3206775 116.19,83.5206775 C118.83,84.7606775 120.88,86.9406775 124,85.9106775 C125.49,84.8006775 126.34,83.1506775 125.59,81.3006775 C124.25,78.0006775 120.42,75.7206775 117.31,74.3106775 C108.41,70.3606775 97.13,74.0306775 92.21,82.3606775 C91.05,84.3806775 91.99,86.6406775 94.42,86.6210678 C97.39,85.5006775 100.15,83.1406775 103.3,82.1906775 Z" id="p1"></path>
                        </g>
                        <g id="p2-link" transform="translate(23.701395, 48.110585)" fill="#FCFEFF">
                            <path d="M36.4186053,1.31009263 C36.4686053,2.53009263 36.5186053,3.76009263 36.5586053,4.98009263 C35.9686053,5.49009263 35.3786053,6.01009263 34.7886053,6.52009263 C30.3786053,6.63009263 25.6286053,6.36009263 21.4486053,7.93009263 C13.0286053,11.0500926 6.96860527,19.2200926 6.36860527,28.1700926 C5.76860527,35.7200926 8.77860527,43.3900926 14.7586053,48.1200926 C21.5986053,53.7000926 31.9086053,54.7400926 39.4686053,50.0200926 C42.4786053,48.1700926 44.2886053,45.5700926 46.8086053,43.2400926 C47.6586053,42.2600926 49.4586053,42.4900926 50.6286053,42.2300926 C50.3586053,44.2200926 50.4786053,46.0300926 49.2286053,47.7200926 C44.6886053,54.0200926 37.4786053,58.2300926 29.6986053,58.7600926 C16.5586053,59.9100926 3.66860527,49.6900926 0.858605272,36.9800926 C-0.841394728,29.4400926 -0.121394728,21.1600926 3.95860527,14.4700926 C6.90860527,9.47009263 11.3786053,5.60009263 16.5886053,3.11009263 C22.8286053,0.170092636 29.7686053,-1.19990737 36.4186053,1.31009263 Z" id="p2"></path>
                        </g>
                        <g id="p3-link" transform="translate(90.250000, 54.531397)" fill="#FCFEFF">
                            <path d="M41.44,8.44928055 C43.3,9.99928055 42.12,11.8092805 42.03,13.8692805 C36.76,13.3692805 33.55,9.72928055 28.71,8.18928055 C22.08,5.98928055 14.85,6.45928055 8.43,9.10928055 C6.08,9.92928055 3.4,11.5092805 0.89,11.3292805 C0.53,10.2192805 0.23,9.09928055 -1.52020044e-23,7.94928055 C3.02,5.64928055 5.88,3.43928055 9.46,2.05928055 C20.19,-2.26071945 33.19,0.379280538 41.44,8.44928055 Z" id="p3"></path>
                        </g>
                        <g id="p4-link" transform="translate(37.799421, 64.938633)" fill="#FCFEFF">
                            <path d="M10.5505789,0.112045466 C15.1405789,-0.167954534 19.2805789,-0.157954534 22.9205789,3.03204547 C29.1405789,8.03204547 30.0605789,17.5020455 24.7405789,23.5020455 C20.2305789,29.1620455 11.9705789,30.1120455 6.2105789,25.7520455 C1.2105789,22.1120455 -0.449421099,16.5620455 0.100578901,10.5520455 C2.6005789,11.8320455 4.5705789,13.5420455 7.5605789,13.1520455 C10.5405789,12.8620455 12.8905789,10.4320455 12.9705789,7.41204547 C13.3205789,4.49204547 11.8605789,2.52204547 10.5505789,0.112045466 Z" id="p4"></path>
                        </g>
                        <g id="p5-link" transform="translate(91.715735, 72.719124)" fill="#FCFEFF">
                            <path d="M25.5942648,1.59155366 C28.7042648,3.00155366 32.5342648,5.28155366 33.8742648,8.58155366 C34.6242648,10.4315537 33.7742648,12.0815537 32.2842648,13.1915537 C29.1642648,14.2215537 27.1142648,12.0415537 24.4742648,10.8015537 C20.6642648,8.60155366 15.7742648,8.36155366 11.5842648,9.47155366 C8.43426479,10.4215537 5.67426479,12.7815537 2.70426479,13.9019439 C0.274264788,13.9215537 -0.665735212,11.6615537 0.494264788,9.64155366 C5.41426479,1.31155366 16.6942648,-2.35844634 25.5942648,1.59155366 Z" id="p5"></path>
                        </g>
                    </g>
                </g>
            </g>
        </g>
    </g>
</svg>