<?xml version="1.0" encoding="UTF-8"?>
<svg width="51px" height="60px" viewBox="0 0 51 60" version="1.1" xmlns="http://www.w3.org/2000/svg" xmlns:xlink="http://www.w3.org/1999/xlink">
    <title>Group</title>
    <g id="Page-1" stroke="none" stroke-width="1" fill="none" fill-rule="evenodd">
        <g id="Group" transform="translate(0.311395, 0.809907)" fill="#000000" fill-rule="nonzero">
            <g id="p2-link">
                <path d="M36.4186053,1.31009263 C36.4686053,2.53009263 36.5186053,3.76009263 36.5586053,4.98009263 C35.9686053,5.49009263 35.3786053,6.01009263 34.7886053,6.52009263 C30.3786053,6.63009263 25.6286053,6.36009263 21.4486053,7.93009263 C13.0286053,11.0500926 6.96860527,19.2200926 6.36860527,28.1700926 C5.76860527,35.7200926 8.77860527,43.3900926 14.7586053,48.1200926 C21.5986053,53.7000926 31.9086053,54.7400926 39.4686053,50.0200926 C42.4786053,48.1700926 44.2886053,45.5700926 46.8086053,43.2400926 C47.6586053,42.2600926 49.4586053,42.4900926 50.6286053,42.2300926 C50.3586053,44.2200926 50.4786053,46.0300926 49.2286053,47.7200926 C44.6886053,54.0200926 37.4786053,58.2300926 29.6986053,58.7600926 C16.5586053,59.9100926 3.66860527,49.6900926 0.858605272,36.9800926 C-0.841394728,29.4400926 -0.121394728,21.1600926 3.95860527,14.4700926 C6.90860527,9.47009263 11.3786053,5.60009263 16.5886053,3.11009263 C22.8286053,0.170092637 29.7686053,-1.19990737 36.4186053,1.31009263 Z" id="p2"></path>
            </g>
            <g id="p4-link" transform="translate(14.098026, 16.828048)">
                <path d="M10.5505789,0.112045466 C15.1405789,-0.167954534 19.2805789,-0.157954534 22.9205789,3.03204547 C29.1405789,8.03204547 30.0605789,17.5020455 24.7405789,23.5020455 C20.2305789,29.1620455 11.9705789,30.1120455 6.2105789,25.7520455 C1.2105789,22.1120455 -0.449421099,16.5620455 0.100578901,10.5520455 C2.6005789,11.8320455 4.5705789,13.5420455 7.5605789,13.1520455 C10.5405789,12.8620455 12.8905789,10.4320455 12.9705789,7.41204547 C13.3205789,4.49204547 11.8605789,2.52204547 10.5505789,0.112045466 Z" id="p4"></path>
            </g>
        </g>
    </g>
</svg>